<?xml version="1.0" encoding="UTF-8"?>
<svg id="Layer_3" data-name="Layer 3" xmlns="http://www.w3.org/2000/svg" viewBox="0 0 170.94 230.22">
  <defs>
    <style>
      .cls-1 {
        stroke: #1c4473;
      }

      .cls-1, .cls-2 {
        fill: none;
        stroke-linecap: round;
        stroke-linejoin: round;
        stroke-width: 4px;
      }

      .cls-3, .cls-4 {
        fill: #67aaf9;
      }

      .cls-2 {
        stroke: #67aaf9;
      }

      .cls-4 {
        font-family: Roboto-SemiBold, Roboto;
        font-size: 40px;
        font-variation-settings: 'wght' 600, 'wdth' 100;
        font-weight: 600;
      }

      .cls-5 {
        fill: #1c4473;
      }
    </style>
  </defs>
  <g id="Layer_1" data-name="Layer 1">
    <g>
      <g>
        <path class="cls-1" d="M87.98,81.73s7.35-4.15,10.42-6.13c3.07-1.98,5.25-4.16,6.93-5.17s4.25-2.46,5.09-2.52,1.59-.22,0-.78-6.64-1.62-10.59-9,1.36-16.62,1.36-16.62c0,0-2.55.82-3.6.6s-.28-3.26.84-5.39,3.24-3.75,5.53-5.25,3.97-1.29,3.97-1.29c0,0-2.18-1.4-2.63-2.29s1.45-1.51,4.19-1.51,7.16,2.07,7.16,2.07c0,0-1.4-2.57-.73-3.19s3.47-.22,5.81,1.17,5.09,4.7,5.09,4.7c0,0,3.72.59,6.48,3.1,2.77,2.52,5.09,7.02,5.09,11.66s-2.57,7.71-2.57,7.71c0,0,1.7,2.4-1.68,6.07-3.37,3.67-6.13,1.29-6.13,1.29,0,0-1.62,2.5-3.11,3.58s-4.51,2.61-4.51,2.61c0,0,4.99.34,8.53,2.01,3.54,1.68,7.9,5.68,12.51,8.45s9.68-.21,10.54.07,1.28,1.74,1.36,5.09c.08,3.62-5.01,5.27-9.56,5.27s-14.06-3.45-14.06-3.45c0,0,.39,5.09,1.96,9.57s1.01,11.74,1.64,13.49,1.69,5.56,7.16,6.62,5.73,3.19,6.01,5,.5,5.23.5,5.23l-7.52,7.3s-1.79-2.96-2.1-4.58-.42-2.71-.42-2.71c0,0-4.95.39-10.43-3.41-5.48-3.8-9.28-13.05-9.28-13.05,0,0-4.25.95-7.94,7.16-3.69,6.2-3.69,13.81-4.08,15.93s-.99,5.7-6.73,5.7-9.2-1.53-9.2-4.36,1.48-3.66,2.26-4.14,2.66-.89,2.66-.89c0,0-.61-6.93,1.84-14.25s8.7-12.02,8.93-12.73-.19-16.55-.19-16.55c0,0-5.67,3.61-12.01,4.34"/>
        <g>
          <path class="cls-3" d="M10.22,90c5.52,0,10-4.48,10-10,0-5.52-4.48-10-10-10-5.52,0-10,4.48-10,10,0,5.52,4.48,10,10,10ZM10.22,75c2.76,0,5,2.24,5,5s-2.24,5-5,5-5-2.24-5-5c0-2.76,2.24-5,5-5Z"/>
          <path class="cls-3" d="M85.22,0C44.06,0,10.17,31.1,5.73,71.08c1.35-.68,2.87-1.07,4.49-1.07,2.04,0,3.93.61,5.51,1.66C19.86,36.93,49.39,10,85.22,10c30.58,0,56.56,19.61,66.09,46.94.8,2.3,3.17,3.75,5.57,3.34,1.08-.18,2.2-.28,3.34-.28.86,0,1.69.07,2.52.18C153.92,25.58,122.56,0,85.22,0Z"/>
        </g>
        <path class="cls-2" d="M46.28,65.42s-2.59,1.44-5.66,2.16c-2.47.58-4.1-1.23-4.1-1.23,0,0,.71-.89,1.12-1.34s.41-1.23.41-1.23c0,0-2.87.75-6.37-.48s-4.02-3.58-4.02-3.58c0,0,5.72-.54,8.35-8.53s5.14-13.47,9.17-16.71c4.02-3.24,11.4-2.57,14.14-1.79s6.32,4.02,8.44,6.48,4.25,6.88,4.25,12.47-1.84,10.23-4.75,13.42c-2.41,2.65-6.95,4.17-8.42,4.62-.1.03-.09.18.01.19.89.14,2.93.62,5.61,2.23,3.63,2.18,6.6,6.26,10.4,7.55s3.35,1.62,6.65,1.9,4.14.22,5.37.45,4.19,1.57,4.19,4.58-1.84,4.86-4.92,5.37-9.5.39-13.08-1.12-7.88-3.52-7.88-3.52c0,0,.39,8.78,2.12,14.93,1.73,6.15,3.97,10.96,5.37,17.78,1.4,6.82,1.9,10.64,1.9,10.64,0,0,2.85-1.04,5.22,2.12s-4.3,7.3-9.78,7.3-6.14-6.43-6.81-11.04c-.67-4.61-4.6-11.42-4.6-11.42l-10.26.17s-1.7,4.02-4.71,6.32-11.61,6.61-11.61,6.61l-8.7-6.24s3.07-2.93,5.31-4.02,3.6-1.43,5.48-3.09,2.31-2.98,2.31-2.98c0,0-3.43-1.11-6.61-3.74s-3.77-4.81-3.77-4.81c0,0,5.95-4.22,9.68-9.89,3.73-5.66,5.4-11.66,5.4-11.66,0,0-6.67,2.05-11.78,2.05s-12.3-2.24-12.3-2.24"/>
        <path class="cls-2" d="M17.01,76.64s10.84.91,17.33-2c6.48-2.91,9.61-4.58,12.07-5.48,1.69-.61,2.02-1.53,3.28-1.66.29-.03-2.11-2.72-2.37-2.87"/>
        <g>
          <path class="cls-5" d="M160.22,90c5.52,0,10-4.48,10-10s-4.48-10-10-10c-5.52,0-10,4.48-10,10,0,5.52,4.48,10,10,10ZM160.22,75c2.76,0,5,2.24,5,5,0,2.76-2.24,5-5,5-2.76,0-5-2.24-5-5s2.24-5,5-5Z"/>
          <path class="cls-5" d="M160.22,90c-2.04,0-3.93-.61-5.51-1.66-4.13,34.73-33.65,61.66-69.49,61.66-30.58,0-56.56-19.61-66.09-46.94-.8-2.3-3.17-3.75-5.57-3.34-1.08.18-2.2.28-3.34.28-.86,0-1.69-.07-2.52-.18,8.82,34.59,40.18,60.18,77.52,60.18,41.16,0,75.05-31.1,79.49-71.08-1.35.68-2.87,1.07-4.49,1.08Z"/>
        </g>
      </g>
      <text class="cls-4" transform="translate(0 219.38)"><tspan x="0" y="0">Max &amp; Oli</tspan></text>
    </g>
  </g>
</svg>